<svg width="64" height="64" viewBox="0 0 64 64" fill="none" xmlns="http://www.w3.org/2000/svg">
  <rect width="64" height="64" rx="14" fill="#111111"/>
  <g opacity="0.8">
    <circle cx="32" cy="32" r="24" stroke="#444444" stroke-width="0.5" stroke-dasharray="2 2"/>
    <path d="M32 8V56" stroke="#00FF41" stroke-width="0.5" opacity="0.3"/>
    <path d="M8 32H56" stroke="#00FF41" stroke-width="0.5" opacity="0.3"/>
    
    <circle cx="32" cy="32" r="4" fill="#00FF41"/>
    <circle cx="32" cy="14" r="3" fill="#00FF41"/>
    <circle cx="32" cy="50" r="3" fill="#00FF41"/>
    <circle cx="14" cy="32" r="3" fill="#00FF41"/>
    <circle cx="50" cy="32" r="3" fill="#00FF41"/>
    
    <circle cx="45" cy="19" r="2.5" fill="#00FF41"/>
    <circle cx="45" cy="45" r="2.5" fill="#00FF41"/>
    <circle cx="19" cy="45" r="2.5" fill="#00FF41"/>
    <circle cx="19" cy="19" r="2.5" fill="#00FF41"/>

    <g stroke="#00FF41" stroke-width="1" opacity="0.6">
      <line x1="32" y1="32" x2="32" y2="14" />
      <line x1="32" y1="32" x2="32" y2="50" />
      <line x1="32" y1="32" x2="14" y2="32" />
      <line x1="32" y1="32" x2="50" y2="32" />
      <line x1="32" y1="14" x2="45" y2="19" />
      <line x1="45" y1="19" x2="50" y2="32" />
      <line x1="50" y1="32" x2="45" y2="45" />
      <line x1="45" y1="45" x2="32" y2="50" />
      <line x1="32" y1="50" x2="19" y2="45" />
      <line x1="19" y1="45" x2="14" y2="32" />
      <line x1="14" y1="32" x2="19" y2="19" />
      <line x1="19" y1="19" x2="32" y2="14" />
    </g>
  </g>
</svg>
